PathFileType	4	(x/y/z)	S10_M20_T60
DataRate	CameraRate	NumFrames	NumMarkers	Units	OrigDataRate	OrigDataStartFrame	OrigNumFrames
240	240	8	51	mm	240	324	517
Frame#	Time	Sternum			R.Acromium			L.Acromium			Top.Head			R.ASIS			L.ASIS			R.PSIS			L.PSIS			R.Great.Tro			L.Great.Tro			R.Iliac.Crest			L.Iliac.Crest			V.Sacral			R.Thigh.Upper.Post			R.Thigh.Lower.Ant			R.Thigh.Lower.Post			R.Thigh.Upper.Ant			R.Knee.Lat			R.Knee.Med			R.Shank.Upper.Post			R.Shank.Lower.Ant			R.Shank.Lower.Post			R.Shank.Upper.Ant			R.Ankle.Lat			R.Ankle.Med			R.Heel.Upper			R.Heel.Med			R.Heel.Lat			R.Toe.Lat			R.Toe.Med			R.Toe.Tip			L.Thigh.Upper.Post			L.Thigh.Lower.Ant			L.Thigh.Lower.Post			L.Thigh.Upper.Ant			L.Knee.Lat			L.Knee.Med			L.Shank.Upper.Post			L.Shank.Lower.Ant			L.Shank.Lower.Post			L.Shank.Upper.Ant			L.Ankle.Lat			L.Ankle.Med			L.Heel.Upper			L.Heel.Med			L.Heel.Lat			L.Toe.Lat			L.Toe.Med			L.Toe.Tip			Cervical.Spine			Back			
		X1	Y1	Z1	X2	Y2	Z2	X3	Y3	Z3	X4	Y4	Z4	X5	Y5	Z5	X6	Y6	Z6	X7	Y7	Z7	X8	Y8	Z8	X9	Y9	Z9	X10	Y10	Z10	X11	Y11	Z11	X12	Y12	Z12	X13	Y13	Z13	X14	Y14	Z14	X15	Y15	Z15	X16	Y16	Z16	X17	Y17	Z17	X18	Y18	Z18	X19	Y19	Z19	X20	Y20	Z20	X21	Y21	Z21	X22	Y22	Z22	X23	Y23	Z23	X24	Y24	Z24	X25	Y25	Z25	X26	Y26	Z26	X27	Y27	Z27	X28	Y28	Z28	X29	Y29	Z29	X30	Y30	Z30	X31	Y31	Z31	X32	Y32	Z32	X33	Y33	Z33	X34	Y34	Z34	X35	Y35	Z35	X36	Y36	Z36	X37	Y37	Z37	X38	Y38	Z38	X39	Y39	Z39	X40	Y40	Z40	X41	Y41	Z41	X42	Y42	Z42	X43	Y43	Z43	X44	Y44	Z44	X45	Y45	Z45	X46	Y46	Z46	X47	Y47	Z47	X48	Y48	Z48	X49	Y49	Z49	X50	Y50	Z50	X51	Y51	Z51	

324	1.3458	1001	1230.6	326.51	907.05	1394.2	481.08	863.21	1406.8	176.27	851.11	1705.6	355.5	945.44	962.33	448.34	952.76	984.51	217.64	749.02	986.57	354.13	755.6	992.98	272.32	855.64	891.84	518.36	897.14	924.65	155.38	850.57	1044.1	490.48	882.18	1057.1	188.04	730.38	955.6	316.12	798.5	692.47	506.67	822.99	601.66	466.15	759.61	613.78	491.34	865.37	681.71	479.82	702.08	500.14	449.86	700.17	510.19	322.92	545.55	321.89	448.26	579.16	238.86	426.39	515.95	254.74	440.58	615.4	306.77	435.75	487.74	147	414.91	497.94	156.04	335.63	409.34	114.56	368.85	410.17	85.39	342.1	407.26	91.181	403.8	570.91	42.084	447.44	600.1	41.288	338.77	659.83	44.994	381	962.14	649.3	148.6	1062.2	604.77	169.18	1000.5	563.65	168.89	1030.4	687.92	149.63	1071.6	505.4	177.17	1083.8	502.75	308.61	1116.4	286.43	173.24	1218.2	243.21	183.97	1157.9	220.38	180.78	1177.5	308.35	175.81	1252	125.21	190.28	1257.8	145.26	274.37	1214	64.91	233.93	1239.7	45.596	270.18	1236	41.678	203.9	1390.9	125.9	170.21	1404.7	153.12	276.54	1442.7	192.46	229.48	810.76	1456.4	351.12	720.41	1249.7	347.99
325	1.35	1007.1	1229.9	325.78	913.21	1393.5	480.27	869.15	1406	175.49	856.56	1704.8	354.6	951.54	961.5	447.82	959.07	983.92	217.12	755.23	985.91	353.47	761.81	992.34	271.59	861.49	891.06	517.77	903.59	924.21	154.86	856.7	1043.3	489.94	888.4	1056.4	187.44	736.6	954.97	315.43	803.77	691.98	506.15	828.01	601.04	465.76	764.62	613.41	490.84	870.63	680.97	479.41	706.68	499.93	449.49	705.06	509.8	322.54	548.7	322.99	448.16	581.56	239.61	426.43	518.5	256.09	440.59	618.37	307.26	435.72	489.29	148.54	415.05	499.58	157.36	335.81	410.68	116.86	368.99	411.2	87.786	342.17	408.28	93.386	403.87	571.23	42.21	447.5	600.44	41.326	338.93	660.02	44.885	381.02	969.21	648.96	148.53	1069.2	604.56	169.65	1007.5	563.36	169.09	1037.5	687.64	149.85	1078.6	505.13	177.63	1090.2	502.57	309.05	1121.4	285.83	173.25	1222.7	241.59	184.49	1162.2	219.35	180.82	1182.7	307.16	176.41	1255.1	123.51	190.48	1260.8	143.03	274.8	1216.2	64.028	234.01	1241.4	44.182	270.18	1237.8	40.572	203.8	1394	122.43	170.93	1407.8	149.16	277.36	1446.5	188.11	230.57	816.73	1455.7	350.37	726.54	1248.9	347.51
326	1.3542	1013.2	1229.2	325.03	919.39	1393	479.45	875.11	1405.1	174.7	862.02	1704.1	353.68	957.7	960.69	447.3	965.44	983.37	216.58	761.5	985.27	352.8	768.08	991.74	270.84	867.4	890.29	517.16	910.1	923.82	154.32	862.89	1042.5	489.38	894.69	1055.8	186.83	742.88	954.37	314.72	809.12	691.51	505.6	833.11	600.42	465.35	769.72	613.04	490.31	875.95	680.23	478.99	711.38	499.7	449.11	710.04	509.41	322.14	551.96	324.12	448.05	584.05	240.39	426.45	521.15	257.47	440.58	621.44	307.75	435.69	490.92	150.11	415.19	501.3	158.72	335.98	412.12	119.23	369.13	412.31	90.263	342.23	409.38	95.673	403.92	571.57	42.348	447.57	600.79	41.346	339.09	660.21	44.785	381.02	976.26	648.64	148.47	1076.3	604.34	170.13	1014.5	563.09	169.29	1044.5	687.37	150.09	1085.5	504.85	178.08	1096.5	502.37	309.47	1126.3	285.24	173.29	1227.1	239.99	185.01	1166.4	218.35	180.88	1187.8	305.97	177.04	1258.1	121.85	190.68	1263.7	140.8	275.25	1218.4	63.305	234.12	1243	42.885	270.19	1239.5	39.592	203.73	1396.9	118.82	171.63	1410.8	145.05	278.13	1450.2	183.55	231.6	822.71	1455	349.6	732.71	1248.1	347.03
327	1.3583	1019.4	1228.6	324.26	925.6	1392.4	478.63	881.1	1404.3	173.9	867.48	1703.4	352.75	963.93	959.9	446.76	971.87	982.86	216.03	767.83	984.65	352.11	774.41	991.17	270.08	873.38	889.52	516.53	916.68	923.46	153.77	869.15	1041.8	488.81	901.05	1055.2	186.21	749.22	953.79	313.98	814.54	691.04	505.02	838.29	599.8	464.93	774.89	612.67	489.76	881.35	679.49	478.54	716.19	499.47	448.71	715.13	509.02	321.71	555.31	325.27	447.91	586.64	241.19	426.47	523.9	258.87	440.55	624.61	308.26	435.63	492.63	151.73	415.32	503.1	160.11	336.16	413.64	121.68	369.25	413.5	92.821	342.28	410.56	98.045	403.96	571.93	42.498	447.63	601.15	41.349	339.27	660.39	44.694	381.01	983.3	648.36	148.44	1083.2	604.12	170.62	1021.5	562.83	169.51	1051.5	687.1	150.33	1092.3	504.59	178.54	1102.8	502.16	309.88	1131.2	284.68	173.35	1231.5	238.42	185.55	1170.6	217.38	180.95	1192.9	304.81	177.69	1261.1	120.26	190.88	1266.5	138.61	275.71	1220.5	62.754	234.26	1244.5	41.724	270.2	1241	38.755	203.68	1399.6	115.11	172.3	1413.7	140.81	278.83	1453.9	178.8	232.58	828.72	1454.3	348.83	738.93	1247.4	346.55
328	1.3625	1025.6	1228.1	323.49	931.82	1391.9	477.79	887.12	1403.6	173.1	872.94	1702.7	351.81	970.2	959.12	446.21	978.35	982.4	215.46	774.22	984.05	351.4	780.81	990.63	269.31	879.43	888.75	515.87	923.32	923.14	153.2	875.46	1041	488.24	907.47	1054.7	185.57	755.62	953.23	313.22	820.03	690.57	504.42	843.56	599.19	464.5	780.15	612.3	489.18	886.81	678.77	478.08	721.11	499.23	448.29	720.31	508.61	321.25	558.76	326.45	447.76	589.31	242.02	426.47	526.74	260.31	440.5	627.88	308.78	435.56	494.44	153.38	415.44	504.99	161.53	336.32	415.27	124.22	369.36	414.78	95.462	342.32	411.82	100.5	403.98	572.3	42.661	447.69	601.52	41.332	339.44	660.56	44.61	380.99	990.32	648.11	148.42	1090.2	603.9	171.11	1028.4	562.6	169.74	1058.6	686.85	150.59	1099.1	504.33	178.98	1109	501.94	310.28	1136.1	284.14	173.44	1235.8	236.9	186.09	1174.8	216.45	181.04	1197.9	303.68	178.36	1264	118.73	191.07	1269.4	136.48	276.19	1222.5	62.385	234.42	1245.9	40.713	270.22	1242.4	38.074	203.65	1402.3	111.31	172.94	1416.6	136.45	279.48	1457.6	173.89	233.49	834.75	1453.6	348.05	745.19	1246.6	346.07
329	1.3667	1031.9	1227.6	322.7	938.07	1391.4	476.94	893.17	1402.8	172.29	878.4	1702	350.86	976.54	958.36	445.66	984.89	981.97	214.88	780.66	983.47	350.68	787.26	990.12	268.53	885.54	887.98	515.2	930.03	922.86	152.61	881.83	1040.3	487.66	913.96	1054.2	184.93	762.08	952.7	312.44	825.6	690.11	503.8	848.92	598.59	464.06	785.5	611.93	488.58	892.36	678.05	477.61	726.14	498.98	447.86	725.6	508.19	320.78	562.33	327.64	447.58	592.09	242.86	426.47	529.69	261.77	440.44	631.25	309.32	435.47	496.34	155.08	415.56	506.97	162.99	336.48	417	126.83	369.45	416.16	98.187	342.34	413.17	103.05	403.98	572.69	42.839	447.74	601.91	41.297	339.62	660.73	44.532	380.97	997.33	647.91	148.41	1097.1	603.69	171.6	1035.3	562.39	169.96	1065.6	686.62	150.85	1105.9	504.09	179.41	1115.1	501.7	310.65	1140.9	283.64	173.56	1240.2	235.44	186.63	1179	215.57	181.15	1202.9	302.59	179.05	1266.9	117.29	191.26	1272.2	134.42	276.67	1224.5	62.2	234.62	1247.1	39.861	270.25	1243.7	37.554	203.64	1404.9	107.44	173.55	1419.5	132.01	280.06	1461.3	168.83	234.33	840.8	1453	347.26	751.5	1245.8	345.58
330	1.3708	1038.2	1227.1	321.91	944.34	1390.9	476.09	899.24	1402.1	171.48	883.87	1701.3	349.9	982.92	957.62	445.1	991.48	981.59	214.29	787.16	982.91	349.94	793.78	989.66	267.74	891.71	887.23	514.52	936.79	922.64	152	888.26	1039.6	487.07	920.51	1053.8	184.27	768.6	952.2	311.64	831.24	689.66	503.15	854.38	597.99	463.62	790.93	611.56	487.96	897.98	677.33	477.11	731.29	498.71	447.4	731.01	507.76	320.28	566.01	328.85	447.38	594.97	243.74	426.46	532.75	263.26	440.36	634.74	309.86	435.36	498.34	156.81	415.67	509.05	164.47	336.64	418.85	129.53	369.52	417.64	101	342.35	414.63	105.7	403.96	573.11	43.031	447.78	602.3	41.244	339.81	660.89	44.46	380.93	1004.3	647.75	148.4	1104	603.49	172.08	1042.1	562.21	170.17	1072.6	686.41	151.11	1112.6	503.86	179.82	1121.2	501.46	311	1145.8	283.19	173.71	1244.5	234.05	187.16	1183.2	214.75	181.28	1208	301.56	179.75	1269.8	115.94	191.44	1275	132.44	277.15	1226.4	62.196	234.85	1248.3	39.17	270.3	1244.9	37.198	203.66	1407.5	103.52	174.12	1422.3	127.51	280.57	1464.9	163.65	235.1	846.86	1452.4	346.46	757.84	1245.1	345.08
331	1.375	1044.6	1226.7	321.1	950.63	1390.5	475.23	905.33	1401.4	170.66	889.33	1700.7	348.92	989.36	956.91	444.53	998.11	981.25	213.69	793.71	982.38	349.19	800.35	989.23	266.95	897.94	886.47	513.82	943.61	922.46	151.38	894.75	1038.9	486.48	927.13	1053.4	183.61	775.17	951.72	310.81	836.96	689.22	502.48	859.93	597.4	463.16	796.46	611.18	487.31	903.68	676.63	476.61	736.57	498.43	446.93	736.53	507.3	319.77	569.81	330.07	447.16	597.96	244.63	426.44	535.92	264.77	440.26	638.34	310.41	435.24	500.46	158.58	415.77	511.24	165.99	336.79	420.82	132.32	369.57	419.23	103.89	342.33	416.19	108.43	403.93	573.54	43.24	447.83	602.7	41.173	340	661.05	44.393	380.89	1011.3	647.65	148.39	1110.8	603.32	172.54	1048.9	562.08	170.37	1079.6	686.23	151.38	1119.2	503.66	180.2	1127.1	501.21	311.33	1150.6	282.78	173.88	1248.8	232.74	187.69	1187.5	214.01	181.43	1213	300.6	180.46	1272.7	114.69	191.62	1277.9	130.56	277.64	1228.3	62.363	235.09	1249.5	38.64	270.35	1246.1	37	203.69	1409.9	99.577	174.66	1425.1	122.96	281.01	1468.6	158.37	235.79	852.95	1451.8	345.65	764.23	1244.3	344.57
